<svg width="161" height="66" viewBox="0 0 161 66" fill="none" xmlns="http://www.w3.org/2000/svg">
<g clip-path="url(#clip0_12259_929)">
<path fill-rule="evenodd" clip-rule="evenodd" d="M53.47 21.68H57.72L59.33 28.27L61 21.68H64.62L66.29 28.27L67.9 21.68H71.99L68.6 32.48H64.38L62.82 26.23L61.25 32.48H57.04L53.48 21.68H53.47Z" fill="white"/>
<path fill-rule="evenodd" clip-rule="evenodd" d="M84.8099 29.29C84.2099 31.63 82.1799 32.87 78.8499 32.87C75.0999 32.87 72.8099 30.61 72.8099 27.17C72.8099 23.55 75.1699 21.29 79.0099 21.29C82.8499 21.29 85.1499 23.69 85.1499 27.76V28.02H77.0999C77.1399 29.4 77.8499 30.18 79.0899 30.18C79.9299 30.18 80.4899 29.85 80.6999 29.28H84.8099V29.29ZM80.9199 25.87C80.8299 24.53 80.1799 23.86 78.9599 23.86C77.8399 23.86 77.1499 24.59 77.0899 25.87H80.9199Z" fill="white"/>
<path fill-rule="evenodd" clip-rule="evenodd" d="M86.92 21.68H90.83V23.27C91.82 22.01 93.04 21.4 94.61 21.4C95.94 21.4 96.97 21.84 97.68 22.7C98.51 23.7 98.57 25 98.57 26.87V32.49H94.28V26.89C94.28 25.41 93.99 24.74 92.82 24.74C91.74 24.74 91.21 25.45 91.21 26.91V32.48H86.92V21.68Z" fill="white"/>
<path fill-rule="evenodd" clip-rule="evenodd" d="M105.27 33.64C105.37 34.17 105.76 34.37 106.53 34.37C107.95 34.37 108.14 33.76 108.14 32.11V31.52C107.41 32.23 106.41 32.58 105.13 32.58C102.22 32.58 100.31 30.42 100.31 27.11C100.31 23.55 102.18 21.4 104.92 21.4C106.47 21.4 107.61 21.93 108.46 23.09V21.69H112.27V31.66C112.27 35.42 110.61 36.85 106.23 36.85C103.14 36.85 101.31 35.65 101.02 33.66H105.28L105.27 33.64ZM106.31 29.58C107.57 29.58 108.12 28.75 108.12 27.04C108.12 25.45 107.45 24.58 106.31 24.58C105.17 24.58 104.58 25.39 104.58 27.02C104.58 28.73 105.13 29.58 106.31 29.58Z" fill="white"/>
<path fill-rule="evenodd" clip-rule="evenodd" d="M114.69 17.86H119.02V32.49H114.69V17.86Z" fill="white"/>
<path fill-rule="evenodd" clip-rule="evenodd" d="M127 21.3C130.81 21.3 133.11 23.5 133.11 27.07C133.11 30.64 130.81 32.87 127 32.87C123.19 32.87 120.9 30.65 120.9 27.07C120.9 23.49 123.2 21.3 127 21.3ZM127 29.88C128.3 29.88 128.79 28.98 128.79 27.07C128.79 25.16 128.3 24.28 127 24.28C125.7 24.28 125.23 25.16 125.23 27.07C125.23 28.98 125.7 29.88 127 29.88Z" fill="white"/>
<path fill-rule="evenodd" clip-rule="evenodd" d="M134.87 21.68H138.84V23.65C139.41 22.06 140.44 21.39 142.2 21.39H142.59V25.68C142.26 25.64 141.98 25.62 141.71 25.62C139.98 25.62 139.19 26.37 139.19 28.04V32.47H134.88V21.67L134.87 21.68Z" fill="white"/>
<path d="M55.41 47.7C54.35 47.7 54.13 47.34 54.13 46.34V43.75H53.5V42.85H54.13V41.54H55.4V42.85H56.14V43.75H55.4V46.4C55.4 46.65 55.48 46.71 55.82 46.71H56.13V47.68C55.78 47.68 55.53 47.71 55.4 47.71L55.41 47.7Z" fill="white"/>
<path d="M56.91 41.15H58.18V43.38C58.53 42.94 59.02 42.72 59.6 42.72C60.18 42.72 60.64 42.93 60.92 43.28C61.17 43.6 61.18 43.97 61.18 44.44V47.63H59.91V45.12C59.91 44.24 59.89 43.78 59.16 43.78C58.56 43.78 58.18 44.16 58.18 44.79V47.63H56.91V41.15Z" fill="white"/>
<path d="M66.54 46.19C66.28 47.19 65.46 47.8 64.32 47.8C62.96 47.8 62.07 46.83 62.07 45.21C62.07 43.59 62.92 42.68 64.3 42.68C65.76 42.68 66.6 43.6 66.6 45.25C66.6 45.36 66.6 45.47 66.59 45.59H63.39C63.43 46.34 63.76 46.73 64.38 46.73C64.81 46.73 65.09 46.57 65.25 46.2H66.53L66.54 46.19ZM65.28 44.74C65.26 44.09 64.93 43.75 64.33 43.75C63.78 43.75 63.44 44.09 63.39 44.74H65.28Z" fill="white"/>
<path d="M70.04 41.15H71.32V42.31H70.04V41.15ZM70.04 42.85H71.32V47.64H70.04V42.85Z" fill="white"/>
<path d="M72.46 42.85H73.71V43.42C74.07 42.96 74.56 42.73 75.16 42.73C76.22 42.73 76.74 43.28 76.74 44.38V47.64H75.46V44.75C75.46 44.1 75.27 43.79 74.72 43.79C74.13 43.79 73.74 44.17 73.74 44.8V47.64H72.46V42.85Z" fill="white"/>
<path d="M77.85 42.85H79.1V43.42C79.46 42.96 79.95 42.73 80.55 42.73C81.61 42.73 82.13 43.28 82.13 44.38V47.64H80.85V44.75C80.85 44.1 80.66 43.79 80.11 43.79C79.51 43.79 79.13 44.17 79.13 44.8V47.64H77.85V42.85Z" fill="white"/>
<path d="M85.41 42.68C86.92 42.68 87.84 43.64 87.84 45.24C87.84 46.84 86.92 47.8 85.41 47.8C83.9 47.8 82.98 46.84 82.98 45.24C82.98 43.64 83.9 42.68 85.41 42.68ZM85.41 46.72C86.12 46.72 86.53 46.19 86.53 45.23C86.53 44.27 86.12 43.75 85.41 43.75C84.7 43.75 84.28 44.27 84.28 45.23C84.28 46.19 84.69 46.72 85.41 46.72Z" fill="white"/>
<path d="M88.17 42.85H89.59L90.57 46.29L91.56 42.85H92.91L91.2 47.64H89.89L88.17 42.85Z" fill="white"/>
<path d="M94.69 47.81C93.77 47.81 93.24 47.27 93.24 46.29C93.24 45.31 93.75 44.94 94.86 44.77C95.85 44.62 96.19 44.69 96.19 44.23C96.19 43.83 95.96 43.69 95.4 43.69C94.88 43.69 94.6 43.91 94.6 44.28V44.35H93.4V44.26C93.4 43.29 94.12 42.68 95.36 42.68C96.71 42.68 97.43 43.17 97.43 44.03V46.75C97.43 47.1 97.49 47.31 97.7 47.42V47.64H96.36C96.27 47.47 96.23 47.27 96.22 47.05C95.9 47.55 95.37 47.82 94.68 47.82L94.69 47.81ZM95.07 45.61C94.66 45.73 94.47 45.88 94.47 46.25C94.47 46.62 94.71 46.83 95.1 46.83C95.79 46.83 96.22 46.41 96.22 45.74V45.29C95.73 45.52 95.32 45.54 95.07 45.62V45.61Z" fill="white"/>
<path d="M99.95 47.7C98.89 47.7 98.67 47.34 98.67 46.34V43.75H98.04V42.85H98.67V41.54H99.94V42.85H100.68V43.75H99.94V46.4C99.94 46.65 100.02 46.71 100.37 46.71H100.69V47.68C100.34 47.68 100.1 47.71 99.96 47.71L99.95 47.7Z" fill="white"/>
<path d="M101.45 41.15H102.73V42.31H101.45V41.15ZM101.45 42.85H102.73V47.64H101.45V42.85Z" fill="white"/>
<path d="M103.33 42.85H104.75L105.73 46.29L106.72 42.85H108.07L106.36 47.64H105.05L103.33 42.85Z" fill="white"/>
<path d="M112.88 46.19C112.62 47.19 111.8 47.8 110.66 47.8C109.3 47.8 108.41 46.83 108.41 45.21C108.41 43.59 109.27 42.68 110.65 42.68C112.11 42.68 112.95 43.6 112.95 45.25C112.95 45.36 112.95 45.47 112.95 45.59H109.75C109.79 46.34 110.12 46.73 110.74 46.73C111.17 46.73 111.45 46.57 111.62 46.2H112.9L112.88 46.19ZM111.62 44.74C111.6 44.09 111.27 43.75 110.67 43.75C110.12 43.75 109.79 44.09 109.73 44.74H111.62Z" fill="white"/>
<path d="M116.58 43.75H115.89V42.85H116.58V42.41C116.58 41.51 117.03 41.11 118.01 41.11C118.2 41.11 118.4 41.11 118.62 41.14V42.16H118.29C117.94 42.16 117.82 42.21 117.82 42.52V42.85H118.62V43.75H117.83V47.64H116.58V43.75Z" fill="white"/>
<path d="M120.7 47.81C119.78 47.81 119.25 47.27 119.25 46.29C119.25 45.31 119.75 44.94 120.87 44.77C121.86 44.62 122.21 44.69 122.21 44.23C122.21 43.83 121.97 43.69 121.42 43.69C120.87 43.69 120.62 43.91 120.62 44.28V44.35H119.42V44.26C119.42 43.29 120.14 42.68 121.38 42.68C122.73 42.68 123.45 43.17 123.45 44.03V46.75C123.45 47.1 123.5 47.31 123.72 47.42V47.64H122.39C122.3 47.47 122.26 47.27 122.25 47.05C121.94 47.55 121.4 47.82 120.71 47.82L120.7 47.81ZM121.08 45.61C120.67 45.73 120.48 45.88 120.48 46.25C120.48 46.62 120.72 46.83 121.11 46.83C121.81 46.83 122.23 46.41 122.23 45.74V45.29C121.74 45.52 121.33 45.54 121.09 45.62L121.08 45.61Z" fill="white"/>
<path d="M124.79 42.85H126.01V43.38C126.36 42.94 126.8 42.71 127.34 42.71C127.94 42.71 128.36 42.93 128.68 43.41C129.01 42.95 129.47 42.71 130.04 42.71C131 42.71 131.61 43.31 131.61 44.29V47.63H130.35V44.55C130.35 44.08 130.08 43.82 129.64 43.82C129.15 43.82 128.83 44.16 128.83 44.73V47.63H127.58V44.56C127.58 44.08 127.32 43.82 126.89 43.82C126.4 43.82 126.08 44.16 126.08 44.74V47.63H124.82V42.84L124.79 42.85Z" fill="white"/>
<path d="M132.95 41.15H134.23V42.31H132.95V41.15ZM132.95 42.85H134.23V47.64H132.95V42.85Z" fill="white"/>
<path d="M135.65 41.15H136.93V47.63H135.65V41.15Z" fill="white"/>
<path d="M138.5 48.52C138.62 48.54 138.72 48.54 138.8 48.54C139.3 48.54 139.56 48.31 139.56 47.83C139.56 47.79 139.56 47.74 139.53 47.69L137.81 42.85H139.22L140.23 46.31L141.21 42.85H142.55L140.59 48.5C140.31 49.31 139.97 49.6 139.05 49.6C138.91 49.6 138.73 49.59 138.51 49.56V48.52H138.5Z" fill="white"/>
<path fill-rule="evenodd" clip-rule="evenodd" d="M47.01 17.86H18.47L17.86 18.47V38.1L24.94 47.62H47.01L47.62 47.01V18.47L47.01 17.86ZM39.95 22.1L38.71 25.38H30.53L28.8 22.1H39.95ZM36.41 29.3H32.62L31.01 26.27H34.81L36.41 29.3ZM40.66 44.45L35.3 34.35L32.45 41.86H28.65L19.9 25.38H23.7L30.24 37.7L33.09 30.19H36.88L44.46 44.45H40.66Z" fill="white"/>
</g>
<defs>
<clipPath id="clip0_12259_929">
<rect width="160.44" height="65.48" fill="white"/>
</clipPath>
</defs>
</svg>
